<?xml version="1.0" encoding="UTF-8"?>
<svg width="96px" height="7px" viewBox="0 0 96 7" version="1.1" xmlns="http://www.w3.org/2000/svg" xmlns:xlink="http://www.w3.org/1999/xlink">
    <!-- Generator: Sketch 60.1 (88133) - https://sketch.com -->
    <title>ShapeArmaniExchange</title>
    <desc>Created with Sketch.</desc>
    <g id="Symbols" stroke="none" stroke-width="1" fill="none" fill-rule="evenodd">
        <g id="Mobile/Header" transform="translate(-20.000000, -125.000000)" fill="#000000" fill-rule="nonzero">
            <g id="Header" transform="translate(0.000000, 80.000000)">
                <g id="axlogo" transform="translate(20.000000, 8.000000)">
                    <path d="M29.1788275,37.887937 L33.6584592,43.8953258 L34.0317618,43.8953258 L34.0317618,37.3418108 L33.6584592,37.3418108 L33.6584592,41.8928629 L30.1120841,37.3418108 L28.9921762,37.3418108 L28.9921762,43.8953258 L29.1788275,43.8953258 L29.1788275,37.887937 Z M36.2715777,37.3418108 L37.3914856,37.3418108 L37.3914856,43.8953258 L36.2715777,43.8953258 L36.2715777,37.3418108 Z M77.7081707,37.887937 L82.1878023,43.8953258 L82.561105,43.8953258 L82.561105,37.3418108 L82.1878023,37.3418108 L82.1878023,41.8928629 L78.6414273,37.3418108 L77.5215193,37.3418108 L77.5215193,43.8953258 L77.7081707,43.8953258 L77.7081707,37.887937 Z M8.41610801,40.3626171 L8.41610801,37.6323499 L8.98296807,37.6323499 C9.95747461,37.6323499 10.382853,38.2285378 10.382853,38.9974835 C10.382853,39.7666113 9.95747461,40.3626171 8.98296807,40.3626171 L8.41610801,40.3626171 Z M10.6396852,43.8620121 L11.9242196,43.8620121 L10.0106702,40.5699631 C10.9142493,40.3886491 11.5699554,39.8787493 11.5699554,38.9973015 C11.5699554,37.8915779 10.5422532,37.347272 9.30195517,37.347272 L7.28201459,37.347272 L7.28201459,43.8620121 L8.41610801,43.8620121 L8.41610801,40.6478771 L8.83234045,40.6478771 L10.6396852,43.8620121 Z M96,43.5312416 L93.0135789,43.5312416 L93.0135789,40.6185683 L95.0667434,40.6185683 L95.0667434,40.2544841 L93.0135789,40.2544841 L93.0135789,37.705895 L96,37.705895 L96,37.3418108 L91.893671,37.3418108 L91.893671,43.8953258 L96,43.8953258 L96,43.5312416 Z M48.4039135,43.5312416 L45.4174923,43.5312416 L45.4174923,40.6185683 L47.4706569,40.6185683 L47.4706569,40.2544841 L45.4174923,40.2544841 L45.4174923,37.705895 L48.4039135,37.705895 L48.4039135,37.3418108 L44.2975844,37.3418108 L44.2975844,43.8953258 L48.4039135,43.8953258 L48.4039135,43.5312416 Z M64.6425783,37.3418108 L63.5226704,37.3418108 L63.5226704,43.8953258 L64.6425783,43.8953258 L64.6425783,40.6185683 L67.4423481,40.6185683 L67.4423481,43.8953258 L68.562256,43.8953258 L68.562256,37.3418108 L67.4423481,37.3418108 L67.4423481,40.4365262 L64.6425783,40.4365262 L64.6425783,37.3418108 Z M13.8734193,37.3418108 L13.8734193,43.8953258 L14.2467219,43.8953258 L14.2467219,37.887937 L16.4865378,43.7132837 L16.8598404,43.7132837 L18.9130049,37.887937 L18.9130049,43.8953258 L20.0329128,43.8953258 L20.0329128,37.3418108 L18.9130049,37.3418108 L17.0464917,42.074905 L15.1799785,37.3418108 L13.8734193,37.3418108 Z M56.4504519,40.6045511 C56.4504519,42.4794025 57.6640587,44 59.3648256,44 C60.3923411,44 61.0920969,43.4384002 61.4642796,42.8940943 L61.21622,42.7298924 C60.8707284,43.2052043 60.2773639,43.7234781 59.4624442,43.7234781 C58.0804778,43.7234781 57.6817906,42.0301226 57.6817906,40.6045511 C57.6817906,39.1789795 58.0804778,37.485624 59.4624442,37.485624 C60.2773639,37.485624 60.8709151,38.0038978 61.21622,38.4792097 L61.4642796,38.3150078 C61.0920969,37.7707019 60.3923411,37.2091021 59.3648256,37.2091021 C57.6640587,37.2091021 56.4504519,38.7296996 56.4504519,40.6045511 L56.4504519,40.6045511 Z M85.8118244,40.6045511 C85.8118244,39.1789795 86.2105116,37.485624 87.6100232,37.485624 C88.4251295,37.485624 89.0274533,38.0038978 89.3727582,38.4792097 L89.6208178,38.3150078 C89.2488218,37.7707019 88.5401067,37.2091021 87.5124045,37.2091021 C85.8028651,37.2091021 84.580299,38.7298817 84.580299,40.6045511 C84.580299,42.4792204 85.820597,44 87.5392823,44 C89.0716897,44 89.842373,42.4877764 89.842373,42.4877764 L89.842373,41.2697328 L87.7961145,41.2697328 L87.7961145,41.5635487 L88.7260114,41.5635487 L88.7260114,42.8249183 C88.7260114,43.1964662 88.3275108,43.7234781 87.6100232,43.7234781 C86.2105116,43.7234781 85.8118244,42.0301226 85.8118244,40.6045511 L85.8118244,40.6045511 Z M2.25904092,38.9368635 L3.38417508,41.8229587 L1.12513416,41.8229587 L2.25904092,38.9368635 Z M4.19032213,43.861648 L5.40411566,43.861648 L2.78166462,37.2 L2.62226439,37.2 L0,43.861648 L0.327759718,43.861648 L1.0187429,42.0989345 L3.49933894,42.0989345 L4.19032213,43.861648 Z M24.097432,38.9368635 L25.2225661,41.8229587 L22.9635252,41.8229587 L24.097432,38.9368635 Z M26.0287132,43.861648 L27.2423201,43.861648 L24.6200557,37.2 L24.4606555,37.2 L21.8383911,43.861648 L22.1661508,43.861648 L22.857134,42.0989345 L25.33773,42.0989345 L26.0287132,43.861648 L26.0287132,43.861648 Z M72.5870184,38.9368635 L73.7119659,41.8229587 L71.452925,41.8229587 L72.5870184,38.9368635 Z M74.5182996,43.861648 L75.7319065,43.861648 L73.1096421,37.2 L72.9502419,37.2 L70.3277908,43.861648 L70.6555505,43.861648 L71.3465337,42.0989345 L73.8271298,42.0989345 L74.5182996,43.861648 Z M49.897124,43.8953258 L50.2704267,43.8953258 L52.1369399,40.9826525 L54.1901044,43.8953258 L55.4966636,43.8953258 L52.8835451,40.072442 L54.9367096,37.3418108 L54.563407,37.3418108 L52.6968938,39.8904 L51.0170319,37.3418108 L49.7104727,37.3418108 L51.9502885,40.8006104 L49.897124,43.8953258 Z" id="Shape"></path>
                </g>
            </g>
        </g>
    </g>
</svg>