<?xml version="1.0" encoding="utf-8"?>
<!-- Generator: Adobe Illustrator 24.0.1, SVG Export Plug-In . SVG Version: 6.00 Build 0)  -->
<svg fill="#000000" version="1.1" id="Livello_1" xmlns="http://www.w3.org/2000/svg" xmlns:xlink="http://www.w3.org/1999/xlink" x="0px" y="0px"
	 viewBox="0 0 14 14" enable-background="new 0 0 14 14" xml:space="preserve">
<path d="M13.4615402,1.5C13.7589207,1.5,14,1.7239075,14,2s-0.2410793,0.5-0.5384598,0.5H0.5384622C0.2410769,2.5,0,2.2760925,0,2
	s0.2410769-0.5,0.5384622-0.5H13.4615402z M13.4615402,6.5C13.7589207,6.5,14,6.7239075,14,7s-0.2410793,0.5-0.5384598,0.5
	H0.5384622C0.2410769,7.5,0,7.2760925,0,7s0.2410769-0.5,0.5384622-0.5H13.4615402z M13.4615402,11.5
	C13.7589207,11.5,14,11.7239075,14,12s-0.2410793,0.5-0.5384598,0.5H0.5384622C0.2410769,12.5,0,12.2760925,0,12
	s0.2410769-0.5,0.5384622-0.5H13.4615402z"/>
</svg>
