<?xml version="1.0" encoding="utf-8"?>
<!-- Generator: Adobe Illustrator 24.0.1, SVG Export Plug-In . SVG Version: 6.00 Build 0)  -->
<svg fill="#000000" version="1.1" id="Livello_1" xmlns="http://www.w3.org/2000/svg" xmlns:xlink="http://www.w3.org/1999/xlink" x="0px" y="0px"
	 viewBox="0 0 14 14" enable-background="new 0 0 14 14" xml:space="preserve">
<path d="M5.2702699,1.000083c-2.3362503,0-4.2388687,1.9216003-4.2388687,4.3019104
	c0,2.3802795,1.9026183,4.3017883,4.2388687,4.3017883c1.1896439,0,2.3003082-0.4992981,3.0982213-1.3657837
	c0.7285995-0.7913208,1.1407013-1.8293152,1.1407013-2.9360046C9.5091925,2.9216833,7.6065125,1.000083,5.2702699,1.000083z
	 M5.2702699,0.000083c2.9155202,0,5.2703252,2.3782043,5.2703252,5.3019104c0,1.2309875-0.4187012,2.3967896-1.1690063,3.3302917
	L9.4234915,8.677268l4.4328003,4.4763184c0.1972961,0.1991882,0.1905975,0.5158081-0.014801,0.7070007
	c-0.2054977,0.1912842-0.5318985,0.1847839-0.7292023-0.0144043L8.6794882,9.369895
	C8.6747885,9.3650732,8.670188,9.3602819,8.6657934,9.3554907c-0.9356923,0.7966919-2.1294713,1.248291-3.3955235,1.248291
	c-2.9155121,0-5.2702789-2.3781128-5.2702789-5.3017883C-0.000009,2.3782873,2.3547578,0.000083,5.2702699,0.000083z"/>
</svg>
