<?xml version="1.0" encoding="utf-8"?>
<!-- Generator: Adobe Illustrator 24.0.1, SVG Export Plug-In . SVG Version: 6.00 Build 0)  -->
<svg fill="#000000" version="1.1" id="Livello_1" xmlns="http://www.w3.org/2000/svg" xmlns:xlink="http://www.w3.org/1999/xlink" x="0px" y="0px"
	 viewBox="0 0 14 14" enable-background="new 0 0 14 14" xml:space="preserve">
<path d="M7.0092201,0.9838867c-1.0589218,0-1.9453316,0.7263184-2.1726189,1.7001038h4.3448181
	C8.9542007,1.7101135,8.0680389,0.9838867,7.0092201,0.9838867z M12.4615402,3.6687012l-2.2238197-0.0007019l0.0001907,1.0477905
	c0,0.2415161-0.1768799,0.4423218-0.4101295,0.4840088L9.7379112,5.2077026c-0.2761497,0-0.5-0.2202148-0.5-0.4919128
	L9.2377205,3.6679993H4.7797203l0.00037,1.0477905c0,0.2415161-0.1768684,0.4423218-0.4101219,0.4840088L4.2800903,5.2077026
	c-0.2761421,0-0.5-0.2202148-0.5-0.4919128l-0.00037-1.0477905L1.5567284,3.6687012v9.3474121h10.9048119V3.6687012z M7.0092201,0
	C8.6222,0,9.9586983,1.1633911,10.1993103,2.6839905l2.2857895,0.0007019c0.5382004,0,0.9764404,0.4312134,0.9764404,0.9608154
	v9.3941956C13.4615402,13.5693054,13.0232506,14,12.4850998,14H1.5331612c-0.5381393,0-0.9764328-0.4306946-0.9764328-0.9602966
	V3.6455078c0-0.5296021,0.4382324-0.9608154,0.9764328-0.9608154l2.2855377-0.0005798C4.0593681,1.1635132,5.3961792,0,7.0092201,0z
	"/>
</svg>
